<?xml version="1.0" standalone="no"?>
<!DOCTYPE svg PUBLIC "-//W3C//DTD SVG 20010904//EN"
 "http://www.w3.org/TR/2001/REC-SVG-20010904/DTD/svg10.dtd">
<svg version="1.0" xmlns="http://www.w3.org/2000/svg"
 width="761.000000pt" height="761.000000pt" viewBox="0 0 761.000000 761.000000"
 preserveAspectRatio="xMidYMid meet">
<metadata>
Created by potrace 1.14, written by Peter Selinger 2001-2017
</metadata>
<g transform="translate(0.000000,761.000000) scale(0.100000,-0.100000)"
fill="#000000" stroke="none">
<path d="M7 7603 c-4 -3 -7 -1716 -7 -3805 l0 -3798 1955 0 1956 0 -40 53
c-216 287 -516 1015 -851 2062 -106 331 -127 383 -164 413 -76 59 -260 90
-861 142 -132 12 -269 28 -305 36 -145 33 -263 119 -328 241 -18 34 -38 64
-45 66 -6 3 -56 2 -109 -1 -91 -5 -100 -3 -153 23 -76 37 -129 106 -215 280
-192 390 -272 817 -257 1385 4 167 7 192 30 258 33 91 52 122 148 242 217 270
678 639 994 798 912 456 1930 824 2374 859 l79 6 0 72 c0 153 62 247 185 280
49 13 85 16 132 12 154 -15 220 -83 250 -259 l6 -38 57 0 c67 0 163 -19 284
-56 l87 -27 53 48 c249 224 491 268 699 125 136 -93 188 -224 209 -530 18
-250 8 -221 117 -345 354 -406 750 -790 1030 -1001 91 -68 242 -167 276 -180
16 -6 17 61 17 1320 l0 1326 -3798 0 c-2089 0 -3802 -3 -3805 -7z"/>
<path d="M4063 6039 c-291 -61 -544 -212 -618 -371 -24 -50 -2 -106 51 -133
35 -18 58 -20 209 -19 452 2 855 141 855 295 0 101 -76 205 -171 233 -71 21
-212 19 -326 -5z"/>
<path d="M1132 4840 c-97 -22 -143 -155 -81 -234 91 -115 280 -42 266 103 -10
93 -93 151 -185 131z"/>
</g>
</svg>
